<?xml version="1.0" standalone="no"?>
<!DOCTYPE svg PUBLIC "-//W3C//DTD SVG 1.1//EN" "http://www.w3.org/Graphics/SVG/1.1/DTD/svg11.dtd" >
<svg xmlns="http://www.w3.org/2000/svg">
<metadata>Generated by IcoMoon</metadata>
<defs>
<font id="vaadin" horiz-adv-x="1024">
<font-face units-per-em="1024" ascent="960" descent="-64" />
<missing-glyph horiz-adv-x="1024" />
<glyph unicode="&#x20;" horiz-adv-x="512" d="" />
<glyph unicode="&#xe900;" glyph-name="align-center" d="M170.667 738.134c0 18.851 17.465 34.133 39.010 34.133h604.647c21.547 0 39.010-15.282 39.010-34.133s-17.463-34.133-39.010-34.133h-604.647c-21.545 0-39.010 15.282-39.010 34.133zM256 541.867c0 18.851 13.099 34.133 29.257 34.133h453.487c16.158 0 29.257-15.282 29.257-34.133s-13.099-34.134-29.257-34.134h-453.487c-16.158 0-29.257 15.283-29.257 34.134zM256 149.333c0 18.85 13.099 34.133 29.257 34.133h453.487c16.158 0 29.257-15.283 29.257-34.133s-13.099-34.133-29.257-34.133h-453.487c-16.158 0-29.257 15.283-29.257 34.133zM170.667 345.6c0 18.85 17.465 34.133 39.010 34.133h604.647c21.547 0 39.010-15.283 39.010-34.133s-17.463-34.133-39.010-34.133h-604.647c-21.545 0-39.010 15.283-39.010 34.133z" />
<glyph unicode="&#xe901;" glyph-name="align-left" d="M170.667 738.134c0 18.851 17.465 34.133 39.010 34.133h604.647c21.547 0 39.010-15.282 39.010-34.133s-17.463-34.133-39.010-34.133h-604.647c-21.545 0-39.010 15.282-39.010 34.133zM170.667 541.867c0 18.851 13.099 34.133 29.257 34.133h453.487c16.158 0 29.257-15.282 29.257-34.133s-13.099-34.134-29.257-34.134h-453.487c-16.158 0-29.257 15.283-29.257 34.134zM170.667 149.333c0 18.85 13.099 34.133 29.257 34.133h453.487c16.158 0 29.257-15.283 29.257-34.133s-13.099-34.133-29.257-34.133h-453.487c-16.158 0-29.257 15.283-29.257 34.133zM170.667 345.6c0 18.85 17.465 34.133 39.010 34.133h604.647c21.547 0 39.010-15.283 39.010-34.133s-17.463-34.133-39.010-34.133h-604.647c-21.545 0-39.010 15.283-39.010 34.133z" />
<glyph unicode="&#xe902;" glyph-name="align-right" d="M170.667 738.134c0 18.851 17.465 34.133 39.010 34.133h604.647c21.547 0 39.010-15.282 39.010-34.133s-17.463-34.133-39.010-34.133h-604.647c-21.545 0-39.010 15.282-39.010 34.133zM341.333 541.867c0 18.851 13.099 34.133 29.257 34.133h453.487c16.158 0 29.257-15.282 29.257-34.133s-13.099-34.134-29.257-34.134h-453.487c-16.158 0-29.257 15.283-29.257 34.134zM341.333 149.333c0 18.85 13.099 34.133 29.257 34.133h453.487c16.158 0 29.257-15.283 29.257-34.133s-13.099-34.133-29.257-34.133h-453.487c-16.158 0-29.257 15.283-29.257 34.133zM170.667 345.6c0 18.85 17.465 34.133 39.010 34.133h604.647c21.547 0 39.010-15.283 39.010-34.133s-17.463-34.133-39.010-34.133h-604.647c-21.545 0-39.010 15.283-39.010 34.133z" />
<glyph unicode="&#xe903;" glyph-name="angle-down" d="M725.783 580.185c17.986 16.126 45.634 14.621 61.764-3.362 16.126-17.983 14.619-45.637-3.363-61.763 0 0-229.351-210.51-245.969-225.411s-36.012-14.901-52.625 0l-245.771 225.411c-17.983 16.126-19.489 43.779-3.362 61.763s43.778 19.489 61.762 3.362l213.783-199.228 213.783 199.228z" />
<glyph unicode="&#xe904;" glyph-name="angle-left" d="M655.616 670.691c16.798 18.733 15.232 47.537-3.503 64.335-18.731 16.798-47.535 15.23-64.333-3.503 0 0-219.286-238.907-234.807-256.217s-15.52-37.513 0-54.818l234.807-256.013c16.798-18.731 45.602-20.301 64.333-3.503 18.735 16.802 20.301 45.602 3.503 64.337l-207.531 222.69 207.531 222.691z" />
<glyph unicode="&#xe905;" glyph-name="angle-right" d="M395.641 670.691c-16.798 18.733-15.23 47.537 3.503 64.335s47.538 15.23 64.336-3.503c0 0 219.281-238.907 234.803-256.217s15.522-37.513 0-54.818l-234.803-256.013c-16.798-18.731-45.603-20.301-64.336-3.503-18.733 16.802-20.301 45.602-3.503 64.337l207.529 222.69-207.529 222.691z" />
<glyph unicode="&#xe906;" glyph-name="angle-up" d="M734.69 304.384c18.735-16.798 47.535-15.232 64.337 3.503 16.798 18.731 15.228 47.535-3.503 64.337 0 0-238.908 219.281-256.218 234.802s-37.513 15.521-54.818 0l-256.012-234.802c-18.733-16.802-20.301-45.606-3.503-64.337 16.799-18.735 45.603-20.301 64.335-3.503l222.691 207.531 222.69-207.531z" />
<glyph unicode="&#xe907;" glyph-name="arrow-down" d="M550.912 298.496l128 114.688c15.36 13.312 39.936 12.288 54.272-4.096 13.312-15.36 12.288-39.936-4.096-53.248l-191.488-171.008c-15.36-13.312-36.864-13.312-51.2 0l-191.488 171.008c-16.384 13.312-17.408 37.888-3.072 53.248 13.312 16.384 37.888 17.408 53.248 4.096l129.024-114.688v342.016c0 20.48 16.384 37.888 37.888 37.888s38.912-17.408 38.912-37.888v-342.016z" />
<glyph unicode="&#xe908;" glyph-name="arrow-left" d="M383.951 387.793l114.69-128c13.312-15.36 12.288-39.936-4.096-54.272-15.36-13.312-39.936-12.288-53.248 4.096l-171.010 191.488c-13.312 15.36-13.312 36.864 0 51.2l171.010 191.486c13.312 16.384 37.888 17.408 53.248 3.072 16.384-13.312 17.408-37.888 4.096-53.248l-114.69-129.022h342.018c20.48 0 37.888-16.384 37.888-37.888s-17.408-38.912-37.888-38.912h-342.018z" />
<glyph unicode="&#xe909;" glyph-name="arrow-right" d="M640.205 465.455l-114.688 128c-13.312 15.36-12.288 39.936 4.096 54.272 15.36 13.312 39.936 12.288 53.248-4.096l171.008-191.488c13.312-15.36 13.312-36.864 0-51.2l-171.008-191.488c-13.312-16.384-37.888-17.408-53.248-3.072-16.384 13.312-17.408 37.888-4.096 53.248l114.688 129.024h-342.014c-20.48 0-37.888 16.384-37.888 37.888s17.408 38.912 37.888 38.912h342.014z" />
<glyph unicode="&#xe90a;" glyph-name="arrow-up" d="M473.246 554.752l-127.998-114.688c-15.36-13.312-39.936-12.288-54.272 4.096-13.312 15.36-12.288 39.936 4.096 53.248l191.486 171.008c15.36 13.312 36.864 13.312 51.2 0l191.488-171.008c16.384-13.312 17.408-37.888 3.072-53.248-13.312-16.384-37.888-17.408-53.248-4.096l-129.024 114.688v-342.016c0-20.48-16.384-37.888-37.888-37.888s-38.912 17.408-38.912 37.888v342.016z" />
<glyph unicode="&#xe90b;" glyph-name="bar-Chart" d="M448.512 788.992v-681.984c0-12.288 9.216-21.504 20.48-21.504h86.016c11.264 0 21.504 9.216 21.504 21.504v681.984c0 12.288-10.24 21.504-21.504 21.504h-86.016c-11.264 0-20.48-9.216-20.48-21.504zM427.008 875.008h169.984c23.552 0 43.008-19.456 43.008-43.008v-768c0-23.552-19.456-43.008-43.008-43.008h-169.984c-23.552 0-43.008 19.456-43.008 43.008v768c0 23.552 19.456 43.008 43.008 43.008zM768 85.504h84.992c12.288 0 21.504 9.216 21.504 21.504v468.992c0 12.288-9.216 21.504-21.504 21.504h-84.992c-11.264 0-21.504-9.216-21.504-21.504v-468.992c0-12.288 10.24-21.504 21.504-21.504zM724.992 660.992h171.008c23.552 0 43.008-18.432 43.008-41.984v-555.008c0-23.552-19.456-43.008-43.008-43.008h-171.008c-23.552 0-41.984 19.456-41.984 43.008v555.008c0 23.552 18.432 41.984 41.984 41.984zM171.008 85.504h84.992c12.288 0 21.504 9.216 21.504 21.504v256c0 11.264-9.216 21.504-21.504 21.504h-84.992c-12.288 0-21.504-10.24-21.504-21.504v-256c0-12.288 9.216-21.504 21.504-21.504zM128 448h171.008c23.552 0 41.984-19.456 41.984-43.008v-340.992c0-23.552-18.432-43.008-41.984-43.008h-171.008c-23.552 0-43.008 19.456-43.008 43.008v340.992c0 23.552 19.456 43.008 43.008 43.008z" />
<glyph unicode="&#xe90c;" glyph-name="bell" d="M376.149 269.103h-76.8v264.192c0 94.208 75.776 171.008 171.008 171.008h-1.024v43.008c0 23.552 18.432 43.008 43.008 41.984 23.552 0 43.008-18.432 43.008-41.984v-43.008h-1.024c95.232 0 171.008-76.8 171.008-171.008v-264.192h-76.8v264.192c0 52.223-41.984 94.208-93.184 94.208h-86.016c-51.2 0-93.184-41.984-93.184-94.208v-264.192zM213.333 231.215c0 21.504 17.408 38.912 38.912 37.888h520.192c21.504 0 37.888-17.408 38.912-37.888 0-21.504-17.408-38.912-38.912-38.912h-520.192c-21.504 0-38.912 17.408-38.912 37.888v1.024zM448.853 158.511h128v-32.768c0-17.408-14.336-31.744-32.768-31.744h-63.488c-17.408 0-32.768 14.336-31.744 31.744v32.768z" />
<glyph unicode="&#xe90d;" glyph-name="calendar" d="M384 746.667h256v21.134c0 12.401 9.643 21.533 21.534 21.533h42.266c12.403 0 21.534-9.641 21.534-21.533v-21.134h74.957c23.296 0 42.377-19.083 42.377-42.622v-42.755c0-23.735-18.974-42.622-42.377-42.622h-576.582c-23.296 0-42.375 19.083-42.375 42.622v42.755c0 23.735 18.972 42.622 42.375 42.622h74.958v21.134c0 12.401 9.641 21.533 21.533 21.533h42.267c12.401 0 21.533-9.641 21.533-21.533v-21.134zM234.866 576h42.267c12.401 0 21.533-9.641 21.533-21.533v-42.266c0-12.403-9.641-21.534-21.533-21.534h-42.267c-12.401 0-21.533 9.643-21.533 21.534v42.266c0 12.401 9.641 21.533 21.533 21.533zM362.866 576h42.267c12.401 0 21.533-9.641 21.533-21.533v-42.266c0-12.403-9.641-21.534-21.533-21.534h-42.267c-12.401 0-21.533 9.643-21.533 21.534v42.266c0 12.401 9.641 21.533 21.533 21.533zM490.867 576h42.266c12.403 0 21.534-9.641 21.534-21.533v-42.266c0-12.403-9.643-21.534-21.534-21.534h-42.266c-12.403 0-21.534 9.643-21.534 21.534v42.266c0 12.401 9.643 21.533 21.534 21.533zM234.866 448h42.267c12.401 0 21.533-9.643 21.533-21.534v-42.266c0-12.403-9.641-21.534-21.533-21.534h-42.267c-12.401 0-21.533 9.643-21.533 21.534v42.266c0 12.403 9.641 21.534 21.533 21.534zM362.866 448h42.267c12.401 0 21.533-9.643 21.533-21.534v-42.266c0-12.403-9.641-21.534-21.533-21.534h-42.267c-12.401 0-21.533 9.643-21.533 21.534v42.266c0 12.403 9.641 21.534 21.533 21.534zM490.867 448h42.266c12.403 0 21.534-9.643 21.534-21.534v-42.266c0-12.403-9.643-21.534-21.534-21.534h-42.266c-12.403 0-21.534 9.643-21.534 21.534v42.266c0 12.403 9.643 21.534 21.534 21.534zM234.866 320h42.267c12.401 0 21.533-9.643 21.533-21.534v-42.266c0-12.403-9.641-21.534-21.533-21.534h-42.267c-12.401 0-21.533 9.643-21.533 21.534v42.266c0 12.403 9.641 21.534 21.533 21.534zM362.866 320h42.267c12.401 0 21.533-9.643 21.533-21.534v-42.266c0-12.403-9.641-21.534-21.533-21.534h-42.267c-12.401 0-21.533 9.643-21.533 21.534v42.266c0 12.403 9.641 21.534 21.533 21.534zM490.867 320h42.266c12.403 0 21.534-9.643 21.534-21.534v-42.266c0-12.403-9.643-21.534-21.534-21.534h-42.266c-12.403 0-21.534 9.643-21.534 21.534v42.266c0 12.403 9.643 21.534 21.534 21.534zM618.867 576h42.266c12.403 0 21.534-9.641 21.534-21.533v-42.266c0-12.403-9.643-21.534-21.534-21.534h-42.266c-12.403 0-21.534 9.643-21.534 21.534v42.266c0 12.401 9.643 21.533 21.534 21.533zM618.867 448h42.266c12.403 0 21.534-9.643 21.534-21.534v-42.266c0-12.403-9.643-21.534-21.534-21.534h-42.266c-12.403 0-21.534 9.643-21.534 21.534v42.266c0 12.403 9.643 21.534 21.534 21.534zM618.867 320h42.266c12.403 0 21.534-9.643 21.534-21.534v-42.266c0-12.403-9.643-21.534-21.534-21.534h-42.266c-12.403 0-21.534 9.643-21.534 21.534v42.266c0 12.403 9.643 21.534 21.534 21.534zM746.867 320h42.266c12.403 0 21.534-9.643 21.534-21.534v-42.266c0-12.403-9.643-21.534-21.534-21.534h-42.266c-12.403 0-21.534 9.643-21.534 21.534v42.266c0 12.403 9.643 21.534 21.534 21.534zM234.866 192h42.267c12.401 0 21.533-9.643 21.533-21.534v-42.266c0-12.403-9.641-21.534-21.533-21.534h-42.267c-12.401 0-21.533 9.643-21.533 21.534v42.266c0 12.403 9.641 21.534 21.533 21.534zM362.866 192h42.267c12.401 0 21.533-9.643 21.533-21.534v-42.266c0-12.403-9.641-21.534-21.533-21.534h-42.267c-12.401 0-21.533 9.643-21.533 21.534v42.266c0 12.403 9.641 21.534 21.533 21.534zM490.867 192h42.266c12.403 0 21.534-9.643 21.534-21.534v-42.266c0-12.403-9.643-21.534-21.534-21.534h-42.266c-12.403 0-21.534 9.643-21.534 21.534v42.266c0 12.403 9.643 21.534 21.534 21.534zM618.867 192h42.266c12.403 0 21.534-9.643 21.534-21.534v-42.266c0-12.403-9.643-21.534-21.534-21.534h-42.266c-12.403 0-21.534 9.643-21.534 21.534v42.266c0 12.403 9.643 21.534 21.534 21.534zM746.867 192h42.266c12.403 0 21.534-9.643 21.534-21.534v-42.266c0-12.403-9.643-21.534-21.534-21.534h-42.266c-12.403 0-21.534 9.643-21.534 21.534v42.266c0 12.403 9.643 21.534 21.534 21.534zM746.867 448h42.266c12.403 0 21.534-9.643 21.534-21.534v-42.266c0-12.403-9.643-21.534-21.534-21.534h-42.266c-12.403 0-21.534 9.643-21.534 21.534v42.266c0 12.403 9.643 21.534 21.534 21.534zM746.867 576h42.266c12.403 0 21.534-9.641 21.534-21.533v-42.266c0-12.403-9.643-21.534-21.534-21.534h-42.266c-12.403 0-21.534 9.643-21.534 21.534v42.266c0 12.401 9.643 21.533 21.534 21.533z" />
<glyph unicode="&#xe90e;" glyph-name="checkmark" d="M321.553 459.52c-14.996 14.997-39.31 14.997-54.306 0-14.996-14.993-14.996-39.309 0-54.302l139.385-139.388c14.996-14.993 39.308-14.993 54.305 0l329.95 329.95c14.997 14.996 14.997 39.31 0 54.306s-39.309 14.996-54.306 0l-302.797-302.797-112.23 112.23z" />
<glyph unicode="&#xe90f;" glyph-name="chevron-down" d="M545.792 290.304l215.040 203.776c9.216 9.216 9.216 23.552 0 32.768-4.096 4.096-10.24 6.144-17.408 6.144h-462.848c-13.312 0-24.576-10.24-24.576-22.528 0-6.144 3.072-12.288 7.168-16.384l215.040-203.776c18.432-17.408 49.152-17.408 67.584 0z" />
<glyph unicode="&#xe910;" glyph-name="chevron-left" d="M354.389 413.867l203.776-215.040c9.216-9.216 23.552-9.216 32.768 0 4.096 4.096 6.144 10.24 6.144 17.408v462.848c0 13.312-10.24 24.576-22.528 24.576-6.144 0-12.288-3.072-16.384-7.168l-203.776-215.040c-17.408-18.432-17.408-49.152 0-67.584z" />
<glyph unicode="&#xe911;" glyph-name="chevron-right" d="M669.355 481.707l-203.776 215.039c-9.216 9.216-23.552 9.216-32.768 0-4.096-4.096-6.144-10.24-6.144-17.408v-462.847c0-13.312 10.24-24.576 22.528-24.576 6.144 0 12.288 3.072 16.384 7.168l203.776 215.040c17.408 18.432 17.408 49.152 0 67.584z" />
<glyph unicode="&#xe912;" glyph-name="chevron-up" d="M477.952 605.269l-215.040-203.776c-9.216-9.216-9.216-23.552 0-32.768 4.096-4.096 10.24-6.144 17.408-6.144h462.848c13.312 0 24.576 10.24 24.576 22.528 0 6.144-3.072 12.288-7.168 16.384l-215.040 203.776c-18.432 17.408-49.152 17.408-67.584 0z" />
<glyph unicode="&#xe913;" glyph-name="clock" d="M550.4 459.639l87.467-87.467c14.997-14.997 14.997-39.309 0-54.306s-39.309-14.997-54.306 0l-95.607 95.607c-0.525 0.525-1.028 1.058-1.515 1.6-7.876 7.036-12.838 17.267-12.838 28.659v200.533c0 21.208 17.19 38.4 38.4 38.4s38.4-17.192 38.4-38.4v-184.627zM512 106.667c-188.513 0-341.333 152.819-341.333 341.333s152.82 341.333 341.333 341.333c188.514 0 341.333-152.82 341.333-341.333s-152.819-341.333-341.333-341.333zM512 177.067c149.632 0 270.933 121.301 270.933 270.933s-121.301 270.933-270.933 270.933c-149.632 0-270.933-121.301-270.933-270.933s121.301-270.933 270.933-270.933z" />
<glyph unicode="&#xe914;" glyph-name="cog" d="M852.992 404.992v86.016l-71.68 25.6c-9.216 25.6-17.408 51.2-30.72 76.8l34.816 67.584-60.416 60.416-67.584-34.816c-21.504 13.312-47.104 25.6-76.8 30.72l-25.6 71.68h-86.016l-25.6-71.68c-25.6-9.216-51.2-17.408-71.68-30.72l-68.608 34.816-64.512-64.512 34.816-67.584c-13.312-21.504-21.504-47.104-29.696-72.704l-72.704-25.6v-86.016l72.704-25.6c8.192-25.6 16.384-51.2 29.696-76.8l-34.816-67.584 60.416-60.416 67.584 34.816c21.504-13.312 47.104-25.6 76.8-29.696l25.6-72.704h86.016l25.6 72.704c25.6 8.192 51.2 16.384 76.8 29.696l67.584-34.816 60.416 60.416-34.816 67.584c13.312 21.504 25.6 47.104 30.72 76.8l71.68 25.6zM512 276.992c-94.208 0-171.008 76.8-171.008 171.008s76.8 171.008 171.008 171.008c94.208 0 171.008-76.8 171.008-171.008s-76.8-171.008-171.008-171.008z" />
<glyph unicode="&#xe915;" glyph-name="cross" d="M455.305 448l-144.896 144.893c-15.657 15.657-15.657 41.041 0 56.698s41.041 15.657 56.698 0l144.893-144.896 144.892 144.896c15.659 15.657 41.041 15.657 56.7 0 15.654-15.657 15.654-41.041 0-56.698l-144.896-144.893 144.896-144.892c15.654-15.659 15.654-41.041 0-56.7-15.659-15.654-41.041-15.654-56.7 0l-144.892 144.896-144.893-144.896c-15.657-15.654-41.041-15.654-56.698 0-15.657 15.659-15.657 41.041 0 56.7l144.896 144.892z" />
<glyph unicode="&#xe916;" glyph-name="download" d="M550.912 426.496l128 114.688c15.36 13.312 39.936 12.288 54.272-4.096 13.312-15.36 12.288-39.936-4.096-53.248l-191.488-171.008c-15.36-13.312-36.864-13.312-51.2 0l-191.488 171.008c-16.384 13.312-17.408 37.888-3.072 53.248 13.312 16.384 37.888 17.408 53.248 4.096l129.024-114.688v342.016c0 20.48 16.384 37.888 37.888 37.888s38.912-17.408 38.912-37.888v-342.016zM776.192 239.104c0 21.504 17.408 37.888 38.912 37.888s37.888-16.384 37.888-37.888v-94.208c0-20.48-16.384-37.888-37.888-37.888h-606.208c-20.48 0-37.888 17.408-37.888 37.888v94.208c0 21.504 17.408 37.888 37.888 37.888 21.504 0 38.912-16.384 38.912-37.888v-55.296h528.384v55.296z" />
<glyph unicode="&#xe917;" glyph-name="dropdown" d="M320.218 561.62c-15.834 14.335-40.18 12.997-54.379-2.988s-12.873-40.565 2.96-54.901l211.482-195.93c14.626-13.244 36.787-13.244 51.418 0l216.393 200.375c15.834 14.336 17.156 38.915 2.957 54.9-14.195 15.986-38.545 17.324-54.379 2.988l-190.682-177.095-185.77 172.65z" />
<glyph unicode="&#xe918;" glyph-name="edit" d="M640 747.007c0-1.024 0-1.024 0-1.024l-75.776-84.992h-223.232c-22.528 0-41.984-18.432-41.984-41.984v-342.015c0-22.528 18.432-41.984 41.984-41.984h108.544c13.312-2.048 26.624-2.048 39.936 0h193.536c22.528 0 41.984 18.432 41.984 41.984v180.224l82.944 92.159 3.072-2.048v-269.311c0-71.68-57.344-129.024-128-129.024h-340.992c-71.68 0-129.024 57.344-129.024 129.024v340.991c0 70.656 57.344 128 129.024 128h297.984zM694.272 677.375l57.344-63.488-208.896-237.567c-9.216-10.24-37.888-23.552-87.040-39.936-1.024-1.024-3.072-1.024-5.12 0-4.096 1.024-7.168 6.144-5.12 10.24 13.312 48.128 25.6 77.824 34.816 88.064l214.016 242.687zM721.92 710.143l58.368 65.536c15.36 17.408 41.984 18.432 59.392 2.048 17.408-15.36 18.432-43.008 3.072-60.416l-63.488-71.68-57.344 64.512z" />
<glyph unicode="&#xe919;" glyph-name="error" d="M512 107.008c-188.416 0-340.992 152.576-340.992 340.992s152.576 340.992 340.992 340.992c188.416 0 340.992-152.576 340.992-340.992s-152.576-340.992-340.992-340.992zM512 176.64c149.504 0 271.36 120.832 271.36 271.36 0 149.504-120.832 271.36-271.36 271.36-149.504 0-271.36-120.832-271.36-271.36 0-149.504 120.832-271.36 271.36-271.36zM490.496 660.992h43.008c12.288 0 21.504-9.216 20.48-20.48l-11.264-222.208c0-8.192-6.144-13.312-13.312-13.312h-34.816c-7.168 0-13.312 6.144-13.312 13.312l-11.264 222.208c0 11.264 9.216 20.48 20.48 20.48zM494.592 337.408h34.816c12.288 0 21.504-9.216 20.48-21.504v-33.792c0-12.288-9.216-21.504-20.48-21.504h-34.816c-12.288 0-21.504 9.216-21.504 21.504v33.792c0 12.288 9.216 21.504 21.504 21.504z" />
<glyph unicode="&#xe91a;" glyph-name="eye-slash" d="M405.294 206.955l61.39 61.389c15.104-1.882 30.229-2.846 45.316-2.846 90.662 0 182.63 34.953 263.97 92.629 31.91 22.622 60.049 47.462 80.529 70.148 6.609 7.317 12.070 14.050 16.111 19.725-4.041 5.67-9.502 12.407-16.111 19.725-20.48 22.686-48.619 47.522-80.529 70.148-7.821 5.548-15.744 10.885-23.757 16.001l51.422 51.421c79.3-52.001 135.031-113.823 135.031-157.296 0-89.293-235.115-256-426.667-256-34.692 0-70.814 5.466-106.706 14.955zM220.558 290.577c-79.404 52.028-135.225 113.916-135.225 157.423 0 89.291 235.114 256 426.667 256 34.773 0 70.985-5.494 106.961-15.021l-61.359-61.358c-15.198 1.903-30.421 2.883-45.602 2.883-90.664 0-182.632-34.957-263.971-92.631-31.908-22.626-60.048-47.462-80.527-70.148-6.609-7.317-12.073-14.054-16.112-19.725 4.039-5.675 9.504-12.407 16.112-19.725 20.479-22.686 48.619-47.526 80.527-70.148 7.888-5.594 15.876-10.974 23.953-16.128l-51.424-51.422zM497.685 299.345l162.97 162.97c0.448-4.71 0.678-9.485 0.678-14.315 0-82.475-66.859-149.333-149.333-149.333-4.83 0-9.604 0.23-14.315 0.678zM363.372 433.391c-0.467 4.804-0.706 9.681-0.706 14.609 0 82.475 66.859 149.333 149.333 149.333 4.928 0 9.805-0.239 14.609-0.706l-163.237-163.236zM192.186 170.227l606.236 606.238c12.506 12.505 32.781 12.505 45.286 0s12.506-32.779 0-45.284l-606.238-606.236c-12.505-12.506-32.779-12.506-45.284 0s-12.505 32.777 0 45.282z" />
<glyph unicode="&#xe91b;" glyph-name="eye" d="M512 192c-191.552 0-426.667 166.707-426.667 256 0 89.291 235.114 256 426.667 256s426.667-166.709 426.667-256c0-89.293-235.115-256-426.667-256zM167.502 428.275c20.479-22.686 48.619-47.522 80.527-70.148 81.339-57.673 173.307-92.629 263.971-92.629 90.662 0 182.63 34.957 263.97 92.629 31.91 22.626 60.049 47.462 80.529 70.148 6.609 7.317 12.070 14.054 16.111 19.725-4.041 5.67-9.502 12.407-16.111 19.725-20.48 22.686-48.619 47.522-80.529 70.149-81.34 57.674-173.308 92.631-263.97 92.631-90.664 0-182.632-34.957-263.971-92.631-31.908-22.627-60.048-47.463-80.527-70.149-6.609-7.317-12.073-14.054-16.112-19.725 4.039-5.67 9.504-12.407 16.112-19.725zM512 298.667c-82.475 0-149.333 66.859-149.333 149.333s66.859 149.333 149.333 149.333c82.475 0 149.333-66.859 149.333-149.333s-66.859-149.333-149.333-149.333zM512 375.467c40.060 0 72.533 32.474 72.533 72.533s-32.474 72.533-72.533 72.533c-40.060 0-72.533-32.474-72.533-72.533s32.474-72.533 72.533-72.533z" />
<glyph unicode="&#xe91c;" glyph-name="menu" d="M171.008 660.992c0 23.552 18.432 43.008 41.984 43.008h598.016c23.552 0 41.984-18.432 41.984-43.008 0-23.552-18.432-41.984-41.984-41.984h-598.016c-23.552 0-41.984 18.432-41.984 41.984zM171.008 448c0 23.552 18.432 43.008 41.984 43.008h598.016c23.552 0 41.984-19.456 41.984-43.008s-18.432-43.008-41.984-43.008h-598.016c-23.552 0-41.984 19.456-41.984 43.008zM171.008 235.008c0 23.552 18.432 41.984 41.984 41.984h598.016c23.552 0 41.984-18.432 41.984-41.984s-18.432-43.008-41.984-43.008h-598.016c-23.552 0-41.984 19.456-41.984 43.008z" />
<glyph unicode="&#xe91d;" glyph-name="minus" d="M267.264 487.936c-22.528 0-39.936-17.408-39.936-39.936s17.408-39.936 39.936-39.936h489.472c22.528 0 39.936 17.408 39.936 39.936s-17.408 39.936-39.936 39.936h-489.472z" />
<glyph unicode="&#xe91e;" glyph-name="ordered-list" d="M141.312 619.008v138.24h-2.048l-44.032-28.672v38.912l46.080 31.744h46.080v-180.224h-46.080zM78.848 487.936c0 35.84 27.648 60.416 69.632 60.416 39.936 0 67.584-21.504 67.584-54.272 0-20.48-11.264-37.888-44.032-65.536l-29.696-27.648v-2.048h75.776v-35.84h-136.192v30.72l56.32 53.248c26.624 24.576 32.768 33.792 33.792 44.032 0 13.312-10.24 22.528-24.576 22.528-15.36 0-26.624-10.24-26.624-25.6v-1.024h-41.984v1.024zM125.952 182.784v31.744h21.504c15.36 0 25.6 8.192 25.6 21.504s-10.24 21.504-25.6 21.504c-15.36 0-26.624-9.216-26.624-23.552h-41.984c1.024 34.816 27.648 57.344 69.632 58.368 39.936 0 67.584-20.48 67.584-50.176 0-20.48-14.336-36.864-33.792-39.936v-3.072c24.576-3.072 40.96-19.456 39.936-41.984 0-32.768-30.72-55.296-74.752-55.296-41.984 0-70.656 22.528-71.68 58.368h44.032c1.024-13.312 11.264-22.528 28.672-22.528 16.384 0 27.648 9.216 27.648 22.528 0 14.336-10.24 22.528-28.672 22.528h-21.504zM340.992 695.808c0 18.432 15.36 33.792 34.816 33.792h528.384c18.432 0 33.792-15.36 34.816-33.792 0-18.432-15.36-33.792-34.816-34.816h-528.384c-18.432 0-33.792 15.36-34.816 34.816zM340.992 439.808c0 18.432 15.36 33.792 34.816 33.792h528.384c18.432 0 33.792-15.36 34.816-33.792s-15.36-33.792-34.816-34.816h-528.384c-18.432 0-33.792 15.36-34.816 34.816zM340.992 183.808c0 18.432 15.36 33.792 34.816 33.792h528.384c18.432 0 33.792-15.36 34.816-33.792s-15.36-33.792-34.816-34.816h-528.384c-18.432 0-33.792 15.36-34.816 34.816z" />
<glyph unicode="&#xe91f;" glyph-name="phone" d="M303.104 747.006l43.008 37.888c17.408 15.36 44.032 13.312 59.392-4.096 2.048-2.048 4.096-5.12 5.12-7.168l59.392-102.4c11.264-20.48 5.12-46.080-15.36-58.368l-7.168-4.096c-17.408-9.216-25.6-30.72-19.456-49.152l21.504-66.558c18.432-60.416 51.2-115.712 94.208-161.792l41.984-46.080c13.312-14.336 34.816-17.408 52.224-7.168l7.168 4.096c20.48 11.264 47.104 4.096 58.368-16.384l59.392-101.376c12.288-20.48 5.12-47.104-15.36-58.368-3.072-2.048-5.12-3.072-8.192-4.096l-53.248-17.408c-63.488-21.504-132.096-4.096-178.176 44.032l-51.2 53.248c-82.944 88.064-144.384 193.536-179.2 309.248l-24.576 79.87c-19.456 63.488 0 132.096 50.176 176.128z" />
<glyph unicode="&#xe920;" glyph-name="photo" d="M212.992 788.992h598.016c70.656 0 128-57.344 128-128v-425.984c0-70.656-57.344-128-128-128h-598.016c-70.656 0-128 57.344-128 128v425.984c0 70.656 57.344 128 128 128zM811.008 712.192h-598.016c-28.672 0-51.2-22.528-51.2-51.2v-425.984c0-28.672 22.528-51.2 51.2-51.2h598.016c28.672 0 51.2 22.528 51.2 51.2v425.984c0 28.672-22.528 51.2-51.2 51.2zM244.736 202.24l171.008 171.008c12.288 12.288 31.744 14.336 46.080 6.144l74.752-44.032 176.128 205.824c13.312 15.36 34.816 18.432 51.2 7.168l97.28-68.608v-94.208l-113.664 79.872-173.056-203.776c-12.288-14.336-32.768-17.408-48.128-8.192l-77.824 44.032-113.664-113.664h-100.352c2.048 7.168 5.12 13.312 10.24 18.432zM468.992 522.752c0-64.512-52.224-117.76-116.736-117.76s-117.76 53.248-117.76 117.76c0 64.512 52.224 117.76 117.76 117.76s116.736-53.248 116.736-117.76zM405.504 522.752c0 29.696-23.552 53.248-53.248 53.248s-53.248-23.552-53.248-53.248c0-29.696 23.552-53.248 53.248-53.248s53.248 23.552 53.248 53.248z" />
<glyph unicode="&#xe921;" glyph-name="play" d="M705.536 419.328l-305.152-179.2c-13.312-7.168-35.84-7.168-49.152 0-6.144 4.096-10.24 9.216-10.24 14.336v387.072c0 11.264 15.36 19.456 34.816 19.456 9.216 0 17.408-2.048 24.576-5.12l305.152-179.2c26.624-15.36 26.624-40.96 0-57.344z" />
<glyph unicode="&#xe922;" glyph-name="plus" d="M471.979 488.021h-204.545c-22.103 0-40.020-17.92-40.020-40.021s17.917-40.021 40.020-40.021h204.545v-204.544c0-22.101 17.92-40.021 40.021-40.021s40.021 17.92 40.021 40.021v204.544h204.544c22.106 0 40.021 17.92 40.021 40.021s-17.916 40.021-40.021 40.021h-204.544v204.546c0 22.103-17.92 40.020-40.021 40.020s-40.021-17.917-40.021-40.020v-204.546z" />
<glyph unicode="&#xe923;" glyph-name="redo" d="M296.96 331.264c22.528 93.184 105.472 159.744 205.824 159.744 56.32 0 108.544-22.528 147.456-58.368l-90.112-90.112c-3.072-3.072-5.12-7.168-5.12-11.264 0-8.192 6.144-15.36 15.36-15.36l197.632 5.12c17.408 0 31.744 15.36 31.744 32.768l5.12 196.608c0 4.096-1.024 8.192-4.096 11.264-6.144 6.144-16.384 6.144-22.528 0l-67.584-68.608c-54.272 51.2-126.976 82.944-207.872 82.944-139.264 0-253.952-92.16-287.744-220.16-1.024-2.048-1.024-5.12-1.024-8.192-8.192-45.056 46.080-69.632 74.752-32.768 4.096 5.12 7.168 11.264 8.192 16.384z" />
<glyph unicode="&#xe924;" glyph-name="reload" d="M512 721.408v98.304c0 9.216 7.168 16.384 15.36 16.384 4.096 0 8.192-1.024 11.264-4.096l135.168-143.36c12.288-12.288 12.288-32.768 0-46.080l-135.168-143.36c-6.144-6.144-16.384-6.144-22.528 0-2.048 3.072-4.096 7.168-4.096 12.288v133.12c-119.808 0-217.088-97.28-217.088-218.112 0-119.808 97.28-217.088 217.088-217.088s218.112 97.28 218.112 217.088c0 21.504 16.384 38.912 37.888 38.912s38.912-17.408 38.912-38.912c0-162.816-132.096-293.888-294.912-293.888s-293.888 131.072-293.888 293.888c0 162.816 131.072 294.912 293.888 294.912z" />
<glyph unicode="&#xe925;" glyph-name="search" d="M678.003 342.336l134.46-134.455c16.286-16.286 16.384-43.401-0.282-60.062-16.777-16.781-43.55-16.789-60.062-0.282l-134.455 134.46c-41.847-29.803-93.043-47.33-148.331-47.33-141.385 0-256 114.615-256 256s114.615 256 256 256c141.385 0 256-114.615 256-256 0-55.287-17.527-106.483-47.33-148.331zM469.333 298.667c106.039 0 192 85.961 192 192s-85.961 192-192 192c-106.039 0-192-85.961-192-192s85.961-192 192-192z" />
<glyph unicode="&#xe926;" glyph-name="undo" d="M727.040 331.264c-22.528 93.184-105.472 159.744-205.824 159.744-56.32 0-108.544-22.528-147.456-58.368l90.112-90.112c3.072-3.072 5.12-7.168 5.12-11.264 0-8.192-6.144-15.36-15.36-15.36l-197.632 5.12c-17.408 0-31.744 15.36-31.744 32.768l-5.12 196.608c0 4.096 1.024 8.192 4.096 11.264 6.144 6.144 16.384 6.144 22.528 0l67.584-68.608c54.272 51.2 126.976 82.944 207.872 82.944 139.264 0 253.952-92.16 287.744-220.16 1.024-2.048 1.024-5.12 1.024-8.192 8.192-45.056-46.080-69.632-74.752-32.768-4.096 5.12-7.168 11.264-8.192 16.384z" />
<glyph unicode="&#xe927;" glyph-name="unordered-list" d="M149.504 627.2c-43.008 0-68.608 26.624-68.608 64.512s25.6 64.512 68.608 64.512c43.008 0 68.608-26.624 68.608-64.512s-25.6-64.512-68.608-64.512zM149.504 371.2c-43.008 0-68.608 26.624-68.608 64.512s25.6 64.512 68.608 64.512c43.008 0 68.608-26.624 68.608-64.512s-25.6-64.512-68.608-64.512zM149.504 115.2c-43.008 0-68.608 26.624-68.608 64.512s25.6 64.512 68.608 64.512c43.008 0 68.608-26.624 68.608-64.512s-25.6-64.512-68.608-64.512zM340.992 695.808c0 18.432 15.36 33.792 34.816 33.792h528.384c18.432 0 33.792-15.36 34.816-33.792 0-18.432-15.36-33.792-34.816-34.816h-528.384c-18.432 0-33.792 15.36-34.816 34.816zM340.992 439.808c0 18.432 15.36 33.792 34.816 33.792h528.384c18.432 0 33.792-15.36 34.816-33.792s-15.36-33.792-34.816-34.816h-528.384c-18.432 0-33.792 15.36-34.816 34.816zM340.992 183.808c0 18.432 15.36 33.792 34.816 33.792h528.384c18.432 0 33.792-15.36 34.816-33.792s-15.36-33.792-34.816-34.816h-528.384c-18.432 0-33.792 15.36-34.816 34.816z" />
<glyph unicode="&#xe928;" glyph-name="upload" d="M550.912 682.496v-340.992c0-21.504-17.408-38.912-38.912-38.912s-37.888 17.408-37.888 38.912v340.992l-129.024-113.664c-15.36-14.336-39.936-13.312-53.248 3.072-14.336 15.36-13.312 39.936 3.072 54.272l191.488 169.984c14.336 13.312 35.84 13.312 51.2 1.024 0-1.024 0-1.024 0-1.024l191.488-169.984c16.384-14.336 17.408-38.912 4.096-54.272-14.336-16.384-38.912-17.408-54.272-3.072l-128 113.664zM776.192 239.104c0 21.504 17.408 37.888 38.912 37.888s37.888-16.384 37.888-37.888v-94.208c0-20.48-16.384-37.888-37.888-37.888h-606.208c-20.48 0-37.888 17.408-37.888 37.888v94.208c0 21.504 17.408 37.888 37.888 37.888 21.504 0 38.912-16.384 38.912-37.888v-55.296h528.384v55.296z" />
<glyph unicode="&#xe929;" glyph-name="user" d="M512 448c-70.656 0-128 57.344-128 128s57.344 128 128 128c70.656 0 128-57.344 128-128s-57.344-128-128-128zM212.992 148.992c0 117.76 134.144 214.016 299.008 214.016s299.008-96.256 299.008-214.016c-299.008 0-299.008 0-598.016 0z" />
</font>
</defs>
</svg>
